<svg width="48" height="48" viewBox="0 0 48 48" fill="none" xmlns="http://www.w3.org/2000/svg">
<path fill-rule="evenodd" clip-rule="evenodd" d="M30.25 0L29.5625 0.187013C29.5625 0.187013 27.7578 0.576624 25.9375 1.68312C24.1172 2.78961 22 4.91688 22 8.1039C22 11.2909 24.1172 13.4182 25.9375 14.5247C26.7983 15.0494 27.3399 15.9811 27.0903 16.9578C26.925 17.6045 26.7644 18.3592 26.633 19.2144C26.3413 21.113 20.9209 24.0623 19 24.0623C17.5547 24.0623 16.2344 24.5221 14.75 25.1221C13.2656 25.7221 11.6953 26.5325 10.25 27.3039C7.36719 28.839 4.9375 30.3584 4.9375 30.3584C4.35598 30.7064 4 31.3343 4 32.012V42.0052C4 42.7755 4.43565 43.4796 5.125 43.8234C5.125 43.8234 13.5234 48 24 48C34.4629 48 42.8532 43.8342 42.875 43.8234C42.8756 43.8231 42.8753 43.8232 42.876 43.8229C43.5597 43.4819 44 42.7795 44 42.0156C44 32.0416 42.8828 23.3766 41.5625 16.9558C40.9062 13.7455 40.2344 11.1195 39.5625 9.1013C38.8906 7.08312 38.5 5.8987 37.5 4.8C36.3516 3.52987 34.7344 2.49351 33.375 1.68312C32.0156 0.872727 30.875 0.311688 30.875 0.311688L30.25 0ZM29.8552 4C30.2387 4.19623 30.5753 4.30612 31.4207 4.81633C32.6419 5.54631 34.0352 6.56672 34.5519 7.13972C34.3875 6.95918 35.1937 8.26217 35.8043 10.0911C36.4149 11.9199 37.1115 14.4631 37.7456 17.5636C38.9511 23.4506 39.8982 31.4804 40 40.6091C38.4814 41.2998 32.3523 44 24.0313 44C15.6556 44 9.4638 41.2763 8 40.6091V33.0738C8.64971 32.6656 9.90998 31.8807 12.1331 30.6876C13.5029 29.9576 14.9824 29.2669 16.2661 28.741C17.5499 28.2151 18.7084 27.9246 19.0215 27.9246C21.5656 27.9246 23.6164 29.8163 23.9687 32.2575C24.1126 33.2314 24.9485 33.9529 25.933 33.9529H29.48C30.8758 33.9529 31.8437 32.5613 31.3581 31.2527C28.4227 23.1758 31.8591 14.6122 31.8591 14.6122L32.7984 12.4144L30.4814 11.9121C30.4814 11.9121 29.2838 11.6295 28.1018 10.9074C26.9198 10.1852 26.0352 9.32182 26.0352 7.83046C26.0352 6.33909 26.9198 5.47567 28.1018 4.75353C28.9706 4.21978 29.4481 4.11774 29.8552 4Z" fill="#040415"/>
</svg>
