<svg width="48" height="48" viewBox="0 0 48 48" fill="none" xmlns="http://www.w3.org/2000/svg">
<path fill-rule="evenodd" clip-rule="evenodd" d="M6 4C2.70998 4 0 6.70998 0 10C0 13.29 2.70998 16 6 16C9.29002 16 12 13.29 12 10C12 6.70998 9.29002 4 6 4ZM6 8C7.12826 8 8 8.87174 8 10C8 11.1283 7.12826 12 6 12C4.87174 12 4 11.1283 4 10C4 8.87174 4.87174 8 6 8ZM30.0005 13.5018C29.6767 12.444 28.5563 11.8495 27.4988 12.1744L8.25781 18.0859C4.16902 19.3291 2.67106 24.5417 5.47656 27.7656L15.4141 40H2C0.89543 40 0 40.8954 0 42C0 43.1046 0.895431 44 2 44H46C47.1046 44 48 43.1046 48 42C48 40.8954 47.1046 40 46 40H27.7656L35.3125 31.5391L45.893 24.7662C46.8239 24.1703 47.096 22.9328 46.5009 22.0014C45.9051 21.0689 44.6659 20.7963 43.7338 21.3929L32.9219 28.3125C32.768 28.4127 32.6287 28.5336 32.5078 28.6719L23.1016 39.2266C23.0856 39.2445 23.07 39.2627 23.0547 39.2812C22.6651 39.7478 22.1388 39.9755 21.6094 40H21.4688C20.939 39.9846 20.4143 39.7674 20.0156 39.3125L8.53906 25.1875C8.5237 25.1716 8.50807 25.156 8.49219 25.1406C7.48969 23.9886 7.95866 22.3589 9.42188 21.9141L12.2109 21.0625L20.4141 31.2188C20.4192 31.2266 20.4244 31.2344 20.4297 31.2422L20.4453 31.2578C20.825 31.7272 21.3963 31.9999 22 32C23.1046 32 24 31.1046 24 30C23.9999 29.5421 23.8427 29.0981 23.5547 28.7422L23.5391 28.7266L16.3359 19.7891L28.6741 16.001C29.7302 15.6768 30.3239 14.5581 30.0005 13.5018Z" fill="#040415"/>
</svg>
