<svg width="48" height="48" viewBox="0 0 48 48" fill="none" xmlns="http://www.w3.org/2000/svg">
<path fill-rule="evenodd" clip-rule="evenodd" d="M30 9C30 4.02944 34.0294 0 39 0C43.9706 0 48 4.02944 48 9C48 13.9706 43.9706 18 39 18C37.2389 18 35.596 17.4942 34.2085 16.6199L28.8284 22L34.9611 28.1327C35.6063 28.7778 36.5963 28.8981 37.3701 28.4537L37.5753 28.3185L42.8 24.4C43.6837 23.7373 44.9373 23.9163 45.6 24.8C46.2118 25.6157 46.1062 26.7466 45.3913 27.437L45.2 27.6L39.9753 31.5185C37.6905 33.2321 34.5329 33.0893 32.4149 31.2259L32.1327 30.9611L26 24.8284L5.41421 45.4142C4.63317 46.1953 3.36684 46.1953 2.58579 45.4142C1.86482 44.6932 1.80936 43.5588 2.41941 42.7742L2.58579 42.5858L24.5858 20.5858L31.3801 13.7915C30.5058 12.404 30 10.7611 30 9ZM44 9C44 6.23858 41.7614 4 39 4C36.2386 4 34 6.23858 34 9C34 11.7614 36.2386 14 39 14C41.7614 14 44 11.7614 44 9ZM13.3178 10.609C15.2346 10.1298 17.2554 10.6264 18.7285 11.9183L19.0156 12.1872L21.4142 14.5858C22.1953 15.3668 22.1953 16.6331 21.4142 17.4142C20.6932 18.1352 19.5588 18.1906 18.7742 17.5806L18.5858 17.4142L16.1872 15.0156C15.7525 14.581 15.1462 14.3737 14.5448 14.4429L14.2879 14.4896L8.48506 15.9403C7.41347 16.2082 6.3276 15.5566 6.05971 14.4851C5.81095 13.49 6.35495 12.4826 7.29191 12.1293L7.51492 12.0597L13.3178 10.609ZM27.2258 32.4194C26.4412 31.8094 25.3068 31.8648 24.5858 32.5858C23.8048 33.3668 23.8048 34.6332 24.5858 35.4142L26.0093 36.8377L26.1757 37.0261C26.7857 37.8107 26.7303 38.9452 26.0093 39.6661C25.7898 39.8857 25.5221 40.0511 25.2276 40.1493L19.3676 42.1026L19.1506 42.1892C18.2435 42.6133 17.7783 43.6594 18.1027 44.6325C18.452 45.6803 19.5846 46.2467 20.6325 45.8974L26.4925 43.944L26.9273 43.7801C27.6398 43.4795 28.2889 43.0434 28.8377 42.4946C31.1809 40.1514 31.1809 36.3524 28.8377 34.0093L27.4142 32.5858L27.2258 32.4194Z" fill="#040415"/>
</svg>
