<svg width="48" height="48" viewBox="0 0 48 48" fill="none" xmlns="http://www.w3.org/2000/svg">
<path fill-rule="evenodd" clip-rule="evenodd" d="M24 0C20.7109 0 18 2.71094 18 6C18 9.28906 20.7109 12 24 12C27.2891 12 30 9.28906 30 6C30 2.71094 27.2891 0 24 0ZM24 4C25.125 4 26 4.875 26 6C26 7.125 25.125 8 24 8C22.875 8 22 7.125 22 6C22 4.875 22.875 4 24 4ZM6 14C4.89543 14 4 14.8954 4 16C4 17.1046 4.89543 18 6 18H18V46C18 47.1046 18.8954 48 20 48C21.1046 48 22 47.1046 22 46V33.4375L28 31.4375L31.0625 33.9375L25.3509 35.9088C24.5425 36.1878 24 36.9489 24 37.8041C24 39.1838 25.3611 40.1512 26.6641 39.6976L33.875 37.1875C34.9375 36.8203 35.7422 35.9219 35.9375 34.8125C36.1328 33.7031 35.6875 32.5859 34.8125 31.875L30 28V18H42C43.1046 18 44 17.1046 44 16C44 14.8954 43.1046 14 42 14H6ZM22 18H26V27.875L22 29.25V18Z" fill="#040415"/>
</svg>
